HIERARCHY
ROOT Hips
{
  OFFSET 13.6774 106.653 -34.4427
  CHANNELS 6 Xposition Yposition Zposition Zrotation Xrotation Yrotation
  JOINT ToSpine
  {
    OFFSET -2.69724 7.43032 -0.144315
    CHANNELS 3 Zrotation Xrotation Yrotation
    JOINT Spine
    {
      OFFSET -0.0310711 10.7595 1.96963
      CHANNELS 3 Zrotation Xrotation Yrotation
      JOINT Spine1
      {
        OFFSET 19.9056 3.91189 0.764692
        CHANNELS 3 Zrotation Xrotation Yrotation
        JOINT Neck
        {
          OFFSET 25.9749 7.03908 -0.130764
          CHANNELS 3 Zrotation Xrotation Yrotation
          JOINT Head
          {
            OFFSET 9.52751 0.295786 -0.907742
            CHANNELS 3 Zrotation Xrotation Yrotation
            End Site
            {
              OFFSET 16.4037 0.713936 2.7358
            }
          }
        }
        JOINT LeftShoulder
        {
          OFFSET 17.7449 4.33886 11.7777
          CHANNELS 3 Zrotation Xrotation Yrotation
          JOINT LeftArm
          {
            OFFSET 0.911315 1.27913 9.80584
            CHANNELS 3 Zrotation Xrotation Yrotation
            JOINT LeftForeArm
            {
              OFFSET 28.6126 1.18197 -3.53199
              CHANNELS 3 Zrotation Xrotation Yrotation
              JOINT LeftHand
              {
                OFFSET 27.5088 0.0218783 0.327423
                CHANNELS 3 Zrotation Xrotation Yrotation
                End Site
                {
                  OFFSET 18.6038 -0.000155887 0.382096
                }
              }
            }
          }
        }
        JOINT RightShoulder
        {
          OFFSET 17.1009 2.89543 -12.2328
          CHANNELS 3 Zrotation Xrotation Yrotation
          JOINT RightArm
          {
            OFFSET 1.4228 0.178766 -10.211
            CHANNELS 3 Zrotation Xrotation Yrotation
            JOINT RightForeArm
            {
              OFFSET 28.733 1.87905 2.64907
              CHANNELS 3 Zrotation Xrotation Yrotation
              JOINT RightHand
              {
                OFFSET 27.4588 0.290562 -0.101845
                CHANNELS 3 Zrotation Xrotation Yrotation
                End Site
                {
                  OFFSET 17.8396 -0.255518 -0.000602873
                }
              }
            }
          }
        }
      }
    }
  }
  JOINT LeftUpLeg
  {
    OFFSET -5.61296 -2.22332 -10.2353
    CHANNELS 3 Zrotation Xrotation Yrotation
    JOINT LeftLeg
    {
      OFFSET 2.56703 -44.7417 -7.93097
      CHANNELS 3 Zrotation Xrotation Yrotation
      JOINT LeftFoot
      {
        OFFSET 3.16933 -46.5642 -3.96578
        CHANNELS 3 Zrotation Xrotation Yrotation
        JOINT LeftToeBase
        {
          OFFSET 0.346054 -6.02161 12.8035
          CHANNELS 3 Zrotation Xrotation Yrotation
          End Site
          {
            OFFSET 0.134235 -1.35082 5.13018
          }
        }
      }
    }
  }
  JOINT RightUpLeg
  {
    OFFSET -5.7928 -1.72406 10.6446
    CHANNELS 3 Zrotation Xrotation Yrotation
    JOINT RightLeg
    {
      OFFSET -2.57161 -44.7178 -7.85259
      CHANNELS 3 Zrotation Xrotation Yrotation
      JOINT RightFoot
      {
        OFFSET -3.10148 -46.5936 -4.03391
        CHANNELS 3 Zrotation Xrotation Yrotation
        JOINT RightToeBase
        {
          OFFSET -0.0828122 -6.13587 12.8035
          CHANNELS 3 Zrotation Xrotation Yrotation
          End Site
          {
            OFFSET -0.131328 -1.35082 5.13018
          }
        }
      }
    }
  }
}
MOTION
Frames: 12
Frame Time: 0.03333333333333333
0.0000 93.1000 0.0000 70.1277 -21.4446 -12.0879 -70.9867 -0.1159 88.0123 92.1555 70.1910 -8.3058 -1.6893 17.9161 6.7511 -137.7527 31.9417 173.0350 -172.8388 72.4108 -164.4278 0.2870 -11.8783 -21.4910 -73.0742 36.7010 -140.1563 7.7553 -3.0737 -105.8979 -0.2939 -0.3837 0.6736 -1.2033 5.1809 31.4119 -126.3161 -18.7271 89.9238 9.6292 5.1182 118.3834 0.4502 -0.5408 0.5925 -48.0884 15.9840 95.1697 -2.9904 34.2124 -8.4622 -6.0057 -6.3546 -0.3608 3.0599 -10.7452 7.6702 -35.5191 -13.1898 85.9759 3.9563 53.5603 1.5122 -3.7902 -20.8386 1.1415 2.3022 -1.2124 -14.2436 
0.0000 93.1000 0.0000 71.0637 -21.2028 -12.1142 -70.9972 -0.1607 88.0168 92.9245 69.5467 -9.1129 -2.0636 17.5356 6.7008 -137.3187 32.0069 171.7579 -172.5513 72.5550 -164.6044 0.5184 -11.7849 -21.5121 -73.0162 37.1739 -141.4239 7.1854 -2.9158 -105.9418 -0.0071 -0.5798 0.9520 -1.2020 4.8837 30.6737 -128.1982 -18.0150 89.3174 11.3972 5.5785 116.4066 0.6879 -0.7922 0.5682 -48.0566 15.1954 93.3539 -2.7397 35.5412 -13.4140 -5.8495 -7.0428 -0.2469 2.7348 -11.1804 12.0366 -35.8079 -14.3409 84.8637 3.1220 52.9986 1.2711 -2.7673 -20.6316 0.7625 2.0693 -0.5951 -14.8695 
0.0000 93.1000 0.0000 70.9704 -20.2354 -12.2947 -71.0144 -0.0587 88.0199 92.0046 69.4578 -8.4407 -1.5092 17.8566 6.8889 -136.0982 32.6580 170.4488 -172.5732 73.1223 -162.0774 0.0335 -11.9206 -20.9027 -73.8228 36.7276 -141.3574 6.4627 -1.8099 -105.8655 0.2370 -0.1068 0.4177 -1.2119 4.8793 29.3090 -131.0683 -17.7444 89.3847 12.0325 5.8272 114.3406 0.3348 -0.2182 0.0199 -47.5011 14.9945 92.7508 -3.1200 36.3999 -14.7709 -4.3074 -8.6528 -1.0866 3.5724 -12.7266 12.6458 -36.9461 -14.0550 84.8420 3.6964 52.6418 1.6680 -3.7372 -19.7941 0.9572 1.7150 -2.2811 -14.9935 
0.0000 93.1000 0.0000 70.7987 -21.1528 -10.5185 -71.0311 -0.0549 88.0321 92.9473 69.4319 -7.1919 -1.6165 17.9525 6.3758 -132.0190 32.8801 166.9314 -174.5133 73.6874 -160.7808 0.1011 -11.6833 -20.0545 -74.4420 36.3381 -142.9935 6.2461 -2.0849 -104.5509 -0.0298 -0.0962 0.3654 -1.2160 5.0102 28.8331 -133.1115 -16.9324 89.8204 13.5217 4.9273 111.5845 0.2015 -0.1710 0.1245 -48.7969 16.6781 92.9386 -3.0275 37.2379 -10.8925 -2.8794 -8.1834 -1.3760 3.5853 -11.8235 13.4475 -36.9389 -14.0126 84.8784 2.4655 51.5096 1.9062 -2.5477 -20.4536 0.8016 1.5711 -1.8818 -14.3209 
0.0000 93.1000 0.0000 70.6825 -21.2031 -11.0425 -71.0375 0.0431 88.0265 91.9460 69.7794 -6.3188 -1.3516 18.0696 6.6042 -133.3596 32.4196 167.0282 -172.9624 73.1535 -163.7974 -0.1419 -10.6966 -19.7845 -75.1206 36.6161 -143.1710 7.4460 -2.1482 -103.9481 0.0039 0.4010 0.0782 -1.0687 5.1549 27.6109 -134.8685 -16.8955 90.5552 15.0244 4.7154 107.5825 -0.3207 0.3409 -0.1878 -49.1375 18.8482 92.6622 -2.2834 38.5121 -5.2917 -2.8138 -5.9519 -1.5761 2.5857 -9.3697 12.6144 -36.8875 -13.4835 86.2683 2.7237 50.8359 2.7863 -1.6462 -18.5235 0.7676 2.2635 -2.1612 -15.3632 
0.0000 93.1000 0.0000 70.8521 -22.7681 -11.1031 -71.0326 0.0359 88.0387 88.6895 70.1221 -3.6325 -1.0090 18.1695 6.6532 -133.7298 32.1828 168.4613 -173.3137 73.0552 -163.2569 0.0274 -10.9695 -19.4616 -75.1911 36.4866 -144.4869 7.9947 -2.8149 -102.7765 0.2375 0.2861 -0.1667 -0.9636 4.9343 25.7725 -134.9886 -17.8132 91.6740 15.6275 3.7729 104.2701 -0.1535 0.2669 -0.1032 -50.9746 19.6710 93.1629 -2.1622 37.6712 -0.8725 -4.2100 -3.2452 -0.9207 1.6101 -6.3030 6.9916 -37.9435 -13.3440 87.4248 2.7482 48.8977 1.4300 -1.5896 -16.9341 0.7058 1.6240 -2.1223 -13.0195 
0.0000 93.1000 0.0000 70.0278 -23.3419 -9.3220 -71.0259 -0.0185 88.0399 87.7914 69.8802 -1.9524 -1.0657 17.8899 7.0134 -132.8042 32.0687 167.3860 -171.2748 73.0274 -162.7983 0.2747 -11.2607 -19.2660 -75.2491 36.1724 -145.8726 9.1453 -2.8231 -102.0090 0.3157 0.0150 -0.0763 -0.9950 5.0753 24.8911 -135.9097 -17.8356 92.6892 16.5911 3.1191 101.5586 0.2209 -0.0791 -0.1167 -51.8879 19.5495 92.5498 -1.6988 36.7457 -4.2447 -5.6445 -2.2337 -0.4237 3.5769 -10.7218 6.4166 -38.0707 -13.0368 87.8945 1.9590 46.7158 0.3098 -1.5553 -14.7755 0.4336 1.1782 -4.1099 -11.6492 
0.0000 93.1000 0.0000 69.5755 -24.0066 -10.5074 -71.0166 -0.0698 88.0444 85.0137 70.0730 0.4627 -0.4378 17.7788 6.7653 -132.1613 31.7780 167.2892 -172.1497 73.0035 -164.3872 0.4996 -11.2895 -18.5857 -75.7478 35.7490 -145.3306 10.0546 -3.0996 -101.7571 -0.1040 -0.2149 0.3601 -1.0542 5.0447 23.8215 -136.9892 -17.2036 93.2852 18.5563 2.9925 99.6787 0.6040 -0.3618 0.2075 -52.1163 18.4131 91.8300 -2.5406 35.2531 -5.8606 -6.0357 -2.8876 -0.1328 5.4998 -13.8796 6.3600 -38.8916 -13.9405 89.0543 1.8684 43.5208 -0.7628 -1.3153 -12.8774 0.1612 0.6365 -3.8050 -6.7261 
0.0000 93.1000 0.0000 70.0341 -25.0834 -10.4649 -71.0152 -0.1613 88.0519 84.5859 70.3443 1.8032 -0.0361 18.1862 6.8379 -130.4675 32.0669 164.7882 -169.4468 72.6900 -167.1812 1.0619 -11.0637 -18.3899 -75.8720 35.0732 -146.4513 11.0803 -3.0900 -100.4942 -0.0365 -0.7413 0.6716 -1.1246 4.8814 23.8569 -137.5423 -17.6436 93.8599 18.8829 2.9196 97.8942 1.0620 -0.9246 0.7185 -53.7550 17.6974 93.9400 -2.6026 34.5046 -6.2845 -5.4948 -4.9268 0.1094 5.6940 -15.1295 6.5896 -38.7525 -14.8918 89.6140 0.8459 40.1765 -0.8554 -0.6996 -9.0219 -0.3868 0.8961 -4.9145 -4.7215 
0.0000 93.1000 0.0000 69.3574 -25.9326 -11.3581 -71.0404 -0.0113 88.0330 84.5590 70.6016 2.5884 0.2627 18.5955 6.2100 -129.5814 32.2736 163.7919 -164.3555 73.2623 -170.2133 0.2276 -11.4963 -17.9540 -74.9884 34.7553 -147.3654 11.8383 -3.1884 -99.9986 -0.0622 -0.0269 0.1405 -1.1553 4.9553 23.5899 -138.1135 -17.5009 94.0807 18.3706 2.3175 96.7893 0.6267 -0.1243 0.2386 -53.5761 16.8605 97.6500 -2.1140 33.9739 -6.1400 -5.0470 -6.2810 -0.6853 5.7872 -13.9690 6.6507 -39.9794 -15.3608 90.1309 0.7874 36.7038 -0.4213 -2.6110 -4.6358 0.1261 0.8962 -7.6491 -2.3383 
0.0000 93.1000 0.0000 69.6284 -26.3459 -11.5430 -71.0632 -0.0600 88.0470 82.5512 70.3258 3.3860 0.4024 18.8073 6.8457 -131.1062 31.9388 164.7429 -166.8371 73.1511 -168.5177 0.4156 -11.8816 -17.9987 -75.7607 34.5800 -147.4422 13.0829 -3.1668 -100.0291 -0.0338 -0.3109 0.4705 -1.0704 5.3514 23.3688 -138.6368 -17.6982 93.9626 18.6058 2.1933 96.7334 0.6182 -0.4496 0.4224 -53.9902 15.0914 100.5664 -2.8062 33.1905 -5.4927 -3.7181 -7.0721 -0.5973 5.0161 -12.7202 6.1902 -40.8641 -16.6441 88.2260 -1.4919 32.7427 3.2394 -3.7583 -0.4664 -0.2823 0.7100 -8.2173 -3.6815 
0.0000 93.1000 0.0000 69.6038 -26.9539 -11.7828 -71.0756 0.1066 88.0296 84.5926 71.2419 1.0937 -0.1841 18.7684 7.3992 -130.4116 31.9857 162.8525 -162.4343 73.9797 -171.0195 -0.4199 -12.1118 -17.9285 -75.0978 34.6800 -147.6464 13.1354 -3.0451 -99.9470 0.4128 0.5094 -0.3299 -1.0262 5.0426 24.3747 -140.1119 -17.7328 93.9306 17.2506 2.4308 97.6928 -0.1705 0.4892 -0.0049 -53.5896 14.1489 101.5873 -2.5565 34.1125 -7.2517 -4.8024 -9.4032 -1.2657 3.3839 -10.3098 6.6120 -41.1590 -18.9300 84.4829 -2.8901 29.6934 5.3161 -3.1242 2.1018 -0.0974 0.8212 -6.4855 -3.0349 
